<?xml version="1.0" standalone="no"?>
<!DOCTYPE svg PUBLIC "-//W3C//DTD SVG 20010904//EN"
 "http://www.w3.org/TR/2001/REC-SVG-20010904/DTD/svg10.dtd">
<svg version="1.0" xmlns="http://www.w3.org/2000/svg"
 width="900.000000pt" height="900.000000pt" viewBox="0 0 900.000000 900.000000"
 preserveAspectRatio="xMidYMid meet">
<metadata>
Created by potrace 1.16, written by Peter Selinger 2001-2019
</metadata>
<g transform="translate(0.000000,900.000000) scale(0.100000,-0.100000)"
fill="#000000" stroke="none">
<path d="M4240 8669 c-468 -25 -987 -149 -1430 -341 -511 -222 -934 -510
-1330 -907 -273 -273 -453 -502 -638 -811 -495 -823 -688 -1794 -546 -2740 30
-203 54 -315 99 -481 295 -1068 986 -1962 1958 -2533 129 -76 431 -222 577
-279 409 -160 815 -252 1264 -288 313 -25 798 0 1105 57 1156 213 2176 890
2815 1868 341 522 565 1134 641 1747 47 381 37 833 -26 1201 -216 1277 -1009
2376 -2161 3000 -705 382 -1494 554 -2328 507z m505 -219 c365 -22 677 -78
995 -178 819 -259 1522 -753 2031 -1428 386 -510 650 -1129 744 -1743 38 -246
48 -379 47 -631 0 -339 -31 -604 -107 -915 -177 -729 -545 -1371 -1089 -1903
-516 -503 -1139 -851 -1851 -1032 -149 -38 -292 -64 -515 -95 -158 -22 -605
-31 -795 -16 -1450 114 -2710 965 -3340 2256 -355 728 -475 1565 -339 2365
142 839 545 1596 1165 2194 810 780 1929 1193 3054 1126z"/>
<path d="M6398 6703 l-46 -4 -6 -87 c-12 -164 -13 -167 -52 -185 -31 -15 -46
-16 -129 -5 l-94 11 -36 -27 c-31 -24 -35 -32 -35 -71 0 -41 2 -45 31 -53 l32
-8 -54 -28 c-42 -22 -92 -34 -233 -57 -98 -16 -180 -30 -182 -32 -2 -2 5 -39
15 -83 11 -43 27 -114 36 -156 9 -42 22 -79 29 -81 7 -3 77 10 157 29 79 19
151 34 159 34 12 0 25 -38 53 -152 21 -84 37 -160 37 -169 0 -9 10 -29 21 -43
19 -24 21 -36 15 -96 -5 -53 -3 -70 9 -80 23 -19 18 -30 -14 -30 -25 0 -31 -6
-46 -42 -23 -56 -161 -477 -170 -517 -5 -24 -26 -44 -101 -97 -53 -36 -97 -64
-98 -62 -4 4 -62 432 -76 558 -6 52 -14 122 -19 154 -4 33 -6 68 -3 78 2 11
-1 18 -9 18 -8 0 -201 0 -429 0 l-415 0 -101 -101 c-71 -71 -106 -99 -115 -93
-8 4 -60 50 -115 101 l-101 93 -416 0 c-242 0 -418 -4 -421 -9 -4 -5 -23 -195
-43 -423 -20 -227 -39 -416 -42 -420 -15 -17 -71 40 -97 97 -15 33 -44 96 -64
140 -21 44 -92 202 -159 352 l-121 271 0 260 0 259 218 6 c119 4 267 7 328 7
l112 0 22 48 c12 26 31 59 41 74 11 14 19 31 19 36 0 6 -46 26 -102 45 -219
75 -364 126 -393 138 -16 7 -70 13 -119 13 -97 1 -129 19 -57 31 23 4 44 11
47 17 4 5 -16 32 -42 60 l-49 49 -176 -7 -177 -7 -72 96 c-43 58 -77 94 -84
91 -13 -5 -26 -68 -26 -125 0 -16 -4 -29 -8 -29 -4 0 -36 34 -71 76 -35 41
-67 72 -71 67 -4 -4 -11 -263 -14 -575 -6 -488 -5 -568 7 -568 8 0 45 28 83
63 l68 62 -68 -130 c-38 -71 -79 -148 -92 -170 -13 -24 -20 -46 -15 -53 4 -7
31 -15 59 -19 29 -3 52 -8 52 -10 0 -3 -25 -33 -56 -68 l-55 -63 11 -289 12
-289 -50 -119 c-28 -66 -98 -235 -157 -375 -173 -410 -174 -412 -164 -429 5
-9 40 -113 78 -231 46 -144 66 -219 59 -227 -5 -6 -82 -67 -171 -134 -89 -68
-185 -141 -212 -164 -28 -22 -63 -49 -79 -61 l-29 -21 38 -134 c21 -74 52
-188 69 -254 l32 -120 364 0 365 0 8 49 c4 27 6 50 4 52 -2 2 -50 11 -108 19
-57 9 -142 24 -189 33 l-85 18 -42 119 c-23 66 -42 125 -42 130 0 6 52 43 117
83 64 40 198 124 297 187 99 63 187 119 195 124 10 7 11 13 3 23 -17 21 -163
349 -163 366 0 9 8 25 19 36 10 12 83 107 162 211 78 105 219 290 312 413 92
123 167 230 165 239 -2 8 -51 43 -110 77 -59 33 -108 63 -108 66 0 3 18 18 40
33 l40 28 118 -94 c70 -56 143 -105 182 -122 36 -16 69 -31 73 -35 4 -4 1 -95
-8 -202 -9 -108 -15 -208 -13 -224 l3 -29 505 3 505 4 125 -136 c69 -75 130
-135 135 -135 6 0 60 61 120 135 l110 136 487 -4 c267 -1 489 -1 492 2 2 3
-11 93 -30 199 -19 107 -34 201 -34 210 0 9 32 34 78 59 42 24 142 81 222 127
80 46 147 81 149 79 3 -3 -30 -40 -73 -83 -63 -63 -78 -84 -74 -103 2 -12 143
-207 313 -433 169 -225 310 -417 312 -425 2 -9 -32 -103 -76 -210 -45 -106
-80 -194 -79 -195 2 -2 44 -31 93 -66 50 -34 179 -125 288 -202 147 -103 197
-143 197 -159 0 -11 -12 -67 -27 -124 l-27 -104 -109 0 -110 0 7 -46 c3 -26 6
-66 6 -90 l0 -44 279 0 278 0 21 58 c97 266 161 467 151 471 -32 10 -504 333
-502 344 3 27 145 453 154 461 12 13 12 53 0 58 -5 2 -36 77 -69 168 -33 91
-97 264 -142 385 -146 396 -290 795 -290 803 0 8 134 152 308 334 l46 47 -67
101 c-37 55 -67 105 -67 112 0 7 9 24 19 37 l18 24 64 -86 c35 -47 70 -86 77
-87 11 0 12 35 7 176 l-5 176 -55 45 -55 44 17 30 c20 34 20 34 66 14 20 -8
38 -11 41 -7 4 7 -22 61 -133 266 -61 111 -61 111 27 122 29 3 55 11 59 17 3
6 -14 29 -38 51 -25 23 -91 83 -148 134 -83 76 -105 91 -116 82 -10 -9 -36
-10 -87 -5 -58 6 -83 15 -135 46 -35 22 -67 38 -71 37 -4 -1 -28 -3 -54 -5z"/>
<path d="M1466 5813 c-66 -198 -95 -298 -88 -305 7 -7 33 -5 81 5 39 8 73 12
76 9 3 -3 5 -209 5 -457 0 -249 3 -499 6 -556 l7 -104 73 3 73 4 8 -74 c4 -40
7 -79 6 -86 0 -7 12 -26 28 -42 26 -26 29 -35 31 -102 2 -96 2 -101 11 -116 5
-6 14 -24 22 -39 13 -25 15 -25 21 -7 4 10 61 143 127 294 l119 275 5 487 5
486 -242 294 c-133 161 -250 300 -259 310 -15 15 -23 -5 -115 -279z"/>
<path d="M7264 5363 c-398 -442 -379 -420 -366 -436 5 -7 90 -254 188 -550 97
-296 181 -534 185 -530 4 4 28 85 53 178 l46 171 -120 359 -120 360 158 158
158 157 184 -250 c102 -137 188 -250 191 -250 11 0 19 120 19 284 l0 161 -112
283 c-61 155 -114 282 -118 282 -4 0 -160 -170 -346 -377z"/>
<path d="M5961 3651 c-73 -126 -143 -246 -156 -265 l-25 -37 160 -363 c88
-200 160 -372 160 -382 0 -24 -42 -127 -55 -136 -5 -4 -41 -8 -80 -8 -38 0
-107 -3 -152 -7 l-83 -6 0 -37 c0 -20 3 -65 6 -99 l7 -61 317 0 318 0 26 63
c14 34 48 118 75 187 l49 125 -119 231 -119 231 0 87 c0 48 5 97 12 109 6 12
38 55 70 95 l60 72 -162 215 c-89 118 -166 215 -170 215 -4 0 -67 -103 -139
-229z"/>
<path d="M2879 3749 c-163 -216 -229 -307 -229 -316 0 -5 29 -47 65 -92 l65
-83 0 -95 0 -96 -115 -224 c-63 -124 -115 -230 -115 -236 0 -7 30 -90 67 -184
l68 -173 413 0 412 0 0 55 c0 52 -1 55 -25 55 -24 0 -455 87 -461 93 -9 9 -54
120 -54 132 0 8 42 111 94 227 249 565 236 533 217 540 -5 2 -69 107 -141 233
-73 127 -141 243 -150 259 l-18 28 -93 -123z"/>
</g>
</svg>
